<svg xmlns="http://www.w3.org/2000/svg" viewBox="0 0 500 500" width="500" height="500"
    preserveAspectRatio="xMidYMid meet"
    style="width: 100%; height: 100%; transform: translate3d(0px, 0px, 0px);">
    <defs>
        <clipPath id="__lottie_element_3">
            <rect width="500" height="500" x="0" y="0"></rect>
        </clipPath>
        <filter id="__lottie_element_5" filterUnits="objectBoundingBox" x="0%" y="0%" width="100%"
            height="100%">
            <feComponentTransfer in="SourceGraphic">
                <feFuncA type="table" tableValues="1.0 0.0"></feFuncA>
            </feComponentTransfer>
        </filter>
        <mask id="__lottie_element_4" mask-type="alpha">
            <g filter="url(#__lottie_element_5)">
                <rect width="500" height="500" x="0" y="0" fill="#ffffff" opacity="0"></rect>
                <g clip-path="url(#__lottie_element_6)" transform="matrix(1,0,0,1,0,0)" opacity="1"
                    style="display: block;">
                    <g transform="matrix(1,0,0,1,250,330)" opacity="1" style="display: block;">
                        <g opacity="1" transform="matrix(1,0,0,1,0,0)">
                            <path fill="rgb(0,0,0)" fill-opacity="1"
                                d=" M115,-11 C115,-11 115,11 115,11 C115,11 -115,11 -115,11 C-115,11 -115,-11 -115,-11 C-115,-11 115,-11 115,-11z">
                            </path>
                        </g>
                    </g>
                    <g transform="matrix(1,0,0,1,250,250)" opacity="1" style="display: block;">
                        <g opacity="1" transform="matrix(1,0,0,1,0,0)">
                            <path fill="rgb(0,0,0)" fill-opacity="1"
                                d=" M115,-11 C115,-11 115,11 115,11 C115,11 -115,11 -115,11 C-115,11 -115,-11 -115,-11 C-115,-11 115,-11 115,-11z">
                            </path>
                        </g>
                    </g>
                    <g transform="matrix(1,0,0,1,250,170)" opacity="1" style="display: block;">
                        <g opacity="1" transform="matrix(1,0,0,1,0,0)">
                            <path fill="rgb(0,0,0)" fill-opacity="1"
                                d=" M115,-11 C115,-11 115,11 115,11 C115,11 -115,11 -115,11 C-115,11 -115,-11 -115,-11 C-115,-11 115,-11 115,-11z">
                            </path>
                        </g>
                    </g>
                </g>
            </g>
        </mask>
        <clipPath id="__lottie_element_6">
            <path d="M0,0 L500,0 L500,500 L0,500z"></path>
        </clipPath>
    </defs>
    <g clip-path="url(#__lottie_element_3)">
        <g mask="url(#__lottie_element_4)" style="display: block;">
            <g transform="matrix(1,0,0,1,64.531005859375,80.531005859375)" opacity="1">
                <g opacity="1" transform="matrix(1,0,0,1,185.468994140625,169.468994140625)">
                    <path fill="rgb(255,255,255)" fill-opacity="1"
                        d=" M0,-245 C135.2154998779297,-245 245,-135.2154998779297 245,0 C245,135.2154998779297 135.2154998779297,245 0,245 C-135.2154998779297,245 -245,135.2154998779297 -245,0 C-245,-135.2154998779297 -135.2154998779297,-245 0,-245z">
                    </path>
                </g>
            </g>
        </g>
    </g>
</svg>