<svg width="55" height="24" viewBox="0 0 55 24" fill="none" xmlns="http://www.w3.org/2000/svg">
<path fill-rule="evenodd" clip-rule="evenodd" d="M30.7258 0C32.0336 2.19517e-06 33.2852 0.15146 34.4806 0.454293C35.0536 0.598226 35.5955 0.779914 36.1062 0.999086H40.0172V4.21892C40.7899 3.05302 41.5204 2.21327 42.2088 1.6997C43.4451 0.783632 45.0115 0.325598 46.9081 0.325595C49.2823 0.325597 51.2211 0.943276 52.7243 2.17859C54.2414 3.40006 55 5.43346 55 8.27886L54.9755 23.5761H48.8223L48.8468 9.75713C48.8468 8.56348 48.6852 7.64734 48.3621 7.00885C47.7721 5.84293 46.6481 5.25995 44.9904 5.25995C42.9533 5.25996 41.5555 6.11358 40.7968 7.82082C40.7697 7.88306 40.7436 7.94656 40.7183 8.01117L40.7043 15.8V23.5761H34.2081L34.2311 20.5412C33.8671 21.1839 33.3985 21.7564 32.8255 22.2587C32.192 22.8038 31.4308 23.2329 30.5419 23.5458C29.653 23.8486 28.6261 24 27.4614 24C25.9595 24 24.621 23.7426 23.446 23.2278C22.2711 22.7029 21.3412 21.9306 20.6567 20.911C19.9824 19.8814 19.6452 18.5994 19.6452 17.065C19.6452 15.7729 19.8853 14.6877 20.3655 13.8095C20.8457 12.9313 21.4997 12.2246 22.3273 11.6896C23.1548 11.1546 24.0948 10.7508 25.1472 10.4782C26.2097 10.2057 27.3235 10.0139 28.4882 9.90288C29.8573 9.76157 30.9608 9.63028 31.7986 9.50916C32.6364 9.37791 33.2444 9.18615 33.6224 8.93379C34.0004 8.68142 34.1895 8.30788 34.1895 7.81327V7.72241C34.1895 6.76346 33.883 6.02149 33.2699 5.49655C32.6671 4.97166 31.8089 4.70919 30.6952 4.70918C29.5202 4.70918 28.5853 4.96653 27.8905 5.48138C27.1957 5.98609 26.7853 6.55929 26.5606 7.32646H22.8814L17.3428 17.0736C15.5817 20.1774 14.1874 22.0998 13.16 22.8407C12.1326 23.5916 10.0779 23.967 6.99588 23.9671C6.37623 23.9671 5.87875 23.9621 5.50369 23.952C5.12861 23.952 3.90668 23.87 3.16102 23.7966V19.4915L4.04167 19.5216C4.72656 19.5416 5.37891 19.5265 5.99857 19.4765C6.61819 19.4264 7.14002 19.3112 7.56399 19.131C7.97166 18.9608 8.3468 18.6054 8.68927 18.0648C9.04791 17.5242 9.1947 17.1938 9.12956 17.0736L0 0.973763H7.75411L13.5758 13.0485L19.0795 0.973763H25.4532C25.5542 0.930623 25.6565 0.888497 25.7602 0.847942C27.1906 0.282643 28.8459 2.51093e-06 30.7258 0ZM34.2275 12.7847C34.0238 12.914 33.7456 13.0336 33.3926 13.1432C33.0452 13.2441 32.6518 13.3401 32.2125 13.4309C31.7731 13.5116 31.3337 13.5874 30.8944 13.6581C30.4551 13.7186 30.0566 13.7742 29.699 13.8246C28.9327 13.9357 28.2635 14.1124 27.6913 14.3546C27.1192 14.5969 26.6747 14.925 26.3579 15.3389C26.0412 15.7426 25.8828 16.2474 25.8828 16.853C25.8828 17.7312 26.2047 18.4025 26.8483 18.8669C27.5023 19.3211 28.3299 19.5483 29.3312 19.5483C30.2916 19.5483 31.1397 19.3615 31.8753 18.988C32.6109 18.6044 33.1881 18.0896 33.607 17.4436C33.9832 16.8635 34.1904 16.2142 34.2288 15.4958L34.2275 12.7847Z" fill="white"/>
</svg>