<svg width="10" height="10" viewBox="0 0 10 10">
<path d="M4.99945 0C5.27696 0.000220422 5.50202 0.225017 5.50203 0.502579L5.50148 4.49523H9.49742C9.77504 4.49532 10 4.72071 10 4.99835C9.99992 5.27593 9.775 5.50084 9.49742 5.50093H5.50148V9.49687C5.50142 9.77439 5.27693 9.99978 4.99945 10C4.72179 10 4.49584 9.77452 4.49578 9.49687V5.50093H0.503127C0.225471 5.50093 7.82575e-05 5.27599 0 4.99835C1.32606e-06 4.72065 0.225423 4.49523 0.503127 4.49523H4.49578V0.50203C4.49601 0.224529 4.72189 0 4.99945 0Z"/>
</svg>
