<svg width="15" height="13" viewBox="0 0 15 13">
<path d="M0.226475 6.047C1.76102 5.16249 3.474 4.42423 5.0745 3.68222C7.82801 2.46687 10.5924 1.27257 13.3848 0.16069C13.928 -0.0287502 14.9042 -0.21399 15 0.628501C14.9475 1.82108 14.7319 3.00667 14.584 4.19227C14.2086 6.7995 13.7748 9.3978 13.3517 11.9964C13.206 12.8621 12.1697 13.3101 11.5067 12.7562C9.91333 11.6299 8.30768 10.5146 6.73463 9.3622C6.21933 8.81429 6.69717 8.02744 7.15737 7.63617C8.46975 6.28276 9.86154 5.13288 11.1053 3.70953C11.4408 2.86172 10.4495 3.57621 10.1225 3.79516C8.32587 5.09077 6.5732 6.46547 4.67897 7.60414C3.71139 8.16149 2.58367 7.68519 1.61654 7.37419C0.7494 6.99848 -0.521218 6.61984 0.226475 6.047Z" />
</svg>